<svg xmlns="http://www.w3.org/2000/svg" viewBox="0 0 450 156"><defs><style>.a{fill:#509946;}</style></defs><title>logo</title><polygon class="a" points="396 0 367 0 367 156 396 156 396 0 396 0"/><polygon class="a" points="289 78.5 260 78.5 260 156 289 156 289 78.5 289 78.5"/><polygon class="a" points="347 0 318 0 318 107 347 107 347 0 347 0"/><polygon class="a" points="137 0 0 0 0 156 29 156 29 29 54 29 54 156 83 156 83 29 108 29 108 156 137 156 137 0 137 0"/><path class="a" d="M261.19,26.5h-83v156h29v-49h25v49h29V26.5Zm-54,78v-49h25v49Z" transform="translate(-21.19 -26.5)"/><polygon class="a" points="356.81 78.5 249.81 78.5 249.81 107.5 356.81 107.5 356.81 78.5 356.81 78.5"/><polygon class="a" points="450 0 367 0 367 29 450 29 450 0 450 0"/><polygon class="a" points="434.81 78.5 367 78.5 367 107.5 434.81 107.5 434.81 78.5 434.81 78.5"/><polygon class="a" points="450 127 367 127 367 156 450 156 450 127 450 127"/><polygon class="a" points="347 127 264 127 264 156 347 156 347 127 347 127"/><polygon class="a" points="186 127 108 127 108 156 186 156 186 127 186 127"/><polygon class="a" points="289 0 211 0 211 29 289 29 289 0 289 0"/><polygon class="a" points="396 127 318 127 318 156 396 156 396 127 396 127"/><polygon class="a" points="346.81 0 259.81 0 259.81 29 346.81 29 346.81 0 346.81 0"/></svg>